<svg width="24" height="31" viewBox="0 0 24 31" fill="none" xmlns="http://www.w3.org/2000/svg">
<g clip-path="url(#clip0_964_17688)">
<path d="M11.9999 17.2499C15.3089 17.2499 17.9999 14.7831 17.9999 11.7499C17.9999 8.71672 15.3089 6.25 11.9999 6.25C8.69097 6.25 6 8.71672 6 11.7499C6 14.7831 8.69097 17.2499 11.9999 17.2499ZM11.9999 8.99997C13.6544 8.99997 14.9999 10.2333 14.9999 11.7499C14.9999 13.2665 13.6544 14.4999 11.9999 14.4999C10.3455 14.4999 8.99997 13.2665 8.99997 11.7499C8.99997 10.2333 10.3455 8.99997 11.9999 8.99997Z" fill="#8EC2F2"/>
<path d="M11.13 29.9707C11.3839 30.152 11.688 30.2494 12 30.2494C12.312 30.2494 12.6161 30.152 12.87 29.9707C13.326 29.6482 24.0434 21.9098 23.9999 12.2499C23.9999 5.63344 18.6164 0.25 12 0.25C5.38357 0.25 0.000132055 5.63344 0.000132055 12.2424C-0.0433675 21.9098 10.674 29.6482 11.13 29.9707ZM12 3.24997C16.9634 3.24997 20.9999 7.28642 20.9999 12.2574C21.0314 18.9143 14.418 24.8917 12 26.8522C9.58353 24.8902 2.9686 18.9113 3.0001 12.2499C3.0001 7.28642 7.03655 3.24997 12 3.24997Z" fill="#8EC2F2"/>
</g>
<defs>
<clipPath id="clip0_964_17688">
<rect width="24" height="29.9997" fill="white" transform="translate(0 0.25)"/>
</clipPath>
</defs>
</svg>
