<svg width="73" height="72" viewBox="0 0 73 72" fill="none" xmlns="http://www.w3.org/2000/svg">
<path d="M29.5 42C37.4967 42 44 35.721 44 28C44 20.279 37.4967 14 29.5 14C21.5032 14 15 20.279 15 28C15 35.721 21.5032 42 29.5 42ZM29.5 21C33.4984 21 36.75 24.1395 36.75 28C36.75 31.8605 33.4984 35 29.5 35C25.5016 35 22.25 31.8605 22.25 28C22.25 24.1395 25.5016 21 29.5 21Z" fill="white"/>
<path d="M51.3748 28.4168C51.3741 16.375 41.5625 6.60006 29.5 6.60006C17.4377 6.60006 7.62587 16.3748 7.62524 28.3991C7.58747 36.4426 11.5717 44.0293 16.2346 50.1537C20.9041 56.2869 26.3002 61.014 29.1855 63.3485L29.4998 63.6027L29.8142 63.3487C32.7015 61.0159 38.0977 56.2905 42.7667 50.16C47.4291 44.0382 51.4125 36.4551 51.3748 28.4168ZM51.3748 28.4168C51.3748 28.4172 51.3748 28.4176 51.3748 28.418H50.875L51.3748 28.4156C51.3748 28.416 51.3748 28.4164 51.3748 28.4168ZM27.7237 69.9329L27.7218 69.9316C27.1977 69.5621 20.5998 64.8197 14.1511 57.3289C7.69316 49.8273 1.44947 39.6444 1.50031 28.3847V28.3825C1.50031 13.019 14.0603 0.5 29.5 0.5C44.9395 0.5 57.4997 13.0188 57.4997 28.4002L57.4997 28.4025C57.5505 39.6531 51.3069 49.8316 44.8489 57.3311C38.4002 64.8197 31.8024 69.5621 31.2782 69.9316L31.2763 69.9329C30.7582 70.3016 30.1371 70.5 29.5 70.5C28.8629 70.5 28.2418 70.3016 27.7237 69.9329Z" fill="white" stroke="black"/>
</svg>
